<svg width="1152" height="288" viewBox="0 0 1152 288" fill="none" xmlns="http://www.w3.org/2000/svg">
<rect x="696" y="48" width="40" height="1" fill="#1F7D73"/>
<rect x="416" y="137" width="40" height="1" fill="#1F7D73"/>
<path d="M78 240V200H1074V240" stroke="#1F7D73"/>
<rect x="576" y="72" width="1" height="72" fill="#1F7D73"/>
<rect x="576" width="1" height="24" fill="#1F7D73"/>
<rect x="576" y="160" width="1" height="40" fill="#1F7D73"/>
<rect x="275" y="200" width="1" height="40" fill="#1F7D73"/>
<rect x="475" y="200" width="1" height="40" fill="#1F7D73"/>
<rect x="675" y="200" width="1" height="40" fill="#1F7D73"/>
<rect x="875" y="200" width="1" height="40" fill="#1F7D73"/>
<rect width="240" height="48" transform="translate(736 24)" fill="#1F7D73"/>
<path d="M854.608 42.168H847.048C846.232 44.064 845.224 45.744 844.12 47.04C843.736 46.656 842.824 46.008 842.32 45.696C844.264 43.632 845.728 40.368 846.544 36.936L848.704 37.344C848.464 38.328 848.176 39.24 847.864 40.152H854.608V42.168ZM847.168 44.544L848.896 43.392C850.48 44.496 852.448 46.128 853.432 47.256L851.632 48.576C850.744 47.472 848.776 45.744 847.168 44.544ZM841.744 36.936V48.36H839.536V36.936H841.744ZM837.04 37.728V47.64H834.88V37.728H837.04ZM837.88 51.48V56.28H840.616V51.48H837.88ZM845.416 51.48H842.656V56.28H845.416V51.48ZM850.264 51.48H847.456V56.28H850.264V51.48ZM852.448 56.28H854.872V58.296H833.2V56.28H835.792V49.608H852.448V56.28ZM874.144 53.664V52.176H869.032V53.664H874.144ZM869.032 49.056V50.424H874.144V49.056H869.032ZM862.264 44.568H866.776V43.128H862.264V44.568ZM873.76 43.128H869.032V44.568H873.76V43.128ZM878.896 50.424V52.176H876.4V56.376H874.144V55.344H869.032V56.592C869.032 57.816 868.72 58.32 867.904 58.632C867.088 58.92 865.84 58.944 863.824 58.944C863.704 58.44 863.368 57.624 863.056 57.144C864.376 57.192 865.816 57.192 866.2 57.168C866.632 57.144 866.776 57.024 866.776 56.616V55.344H859.288V53.664H866.776V52.176H857.176V50.424H866.776V49.056H859.504V47.472H866.776V46.056H860.128V41.64H866.776V40.416H857.68V38.616H866.776V36.864H869.032V38.616H878.392V40.416H869.032V41.64H876.016V46.056H869.032V47.472H876.4V50.424H878.896Z" fill="white"/>
<rect width="240" height="48" transform="translate(176 112)" fill="#1F7D73"/>
<path d="M263.84 131.224V134.584H261.68V129.232H266.144C265.688 128.32 264.824 127.072 264.032 126.16L265.928 125.128C266.84 126.16 267.848 127.48 268.28 128.416L266.888 129.232H270.824V124.888H273.104V129.232H275.84C276.56 128.104 277.496 126.4 278 125.152L280.352 125.896C279.632 127.024 278.864 128.272 278.144 129.232H282.416V134.584H280.16V131.224H263.84ZM267.704 134.896V137.92H276.224V134.896H267.704ZM276.584 144.64H279.728C280.592 144.64 280.76 144.256 280.856 141.736C281.336 142.12 282.296 142.456 282.872 142.6C282.608 145.888 282.008 146.728 279.92 146.728H276.32C273.824 146.728 273.2 146.056 273.2 143.848V139.888H270.656C269.984 143.416 268.16 145.648 262.328 146.872C262.16 146.272 261.584 145.312 261.104 144.856C266.12 143.992 267.68 142.408 268.28 139.888H265.472V132.928H278.576V139.888H275.432V143.824C275.432 144.496 275.6 144.64 276.584 144.64ZM301.016 135.976H291.272C292.4 138.016 294.032 139.72 296.096 141.064C298.16 139.744 299.864 138.088 301.016 135.976ZM302.72 133.696L304.28 134.608C302.984 137.848 300.896 140.344 298.256 142.24C300.728 143.416 303.68 144.184 307.064 144.592C306.584 145.12 305.96 146.104 305.672 146.752C301.856 146.2 298.664 145.192 296 143.656C293.048 145.24 289.64 146.248 286.04 146.896C285.872 146.296 285.272 145.264 284.84 144.76C288.152 144.28 291.224 143.488 293.888 142.264C291.848 140.68 290.192 138.688 288.944 136.288L289.784 135.976H287V133.792H294.776V130.504H285.896V128.296H294.776V124.888H297.08V128.296H306.032V130.504H297.08V133.792H302.312L302.72 133.696ZM318.512 140.008H312.608V143.728H318.512V140.008ZM310.496 146.776V137.992H320.72V146.608H318.512V145.672H312.608V146.776H310.496ZM321.224 127.6V129.592H309.896V127.6H314.648C314.408 126.856 314.072 125.992 313.76 125.296L315.776 124.72C316.232 125.632 316.712 126.76 316.976 127.6H321.224ZM318.056 129.592L320.264 130.096C319.736 131.416 319.136 132.856 318.608 134.008H321.776V136.024H309.248V134.008H312.632C312.416 132.952 311.84 131.368 311.264 130.168L313.208 129.664C313.832 130.864 314.432 132.448 314.672 133.504L312.92 134.008H316.472C317.072 132.736 317.72 130.912 318.056 129.592ZM329.288 125.968L330.848 126.952C330.008 129.184 328.952 131.92 327.992 134.08C330.032 136.264 330.488 138.136 330.488 139.72C330.488 141.256 330.152 142.408 329.336 142.984C328.928 143.272 328.4 143.44 327.848 143.512C327.272 143.584 326.552 143.584 325.856 143.56C325.832 142.984 325.64 142.048 325.304 141.448C325.928 141.52 326.504 141.52 326.912 141.52C327.272 141.496 327.608 141.424 327.848 141.28C328.304 140.992 328.448 140.32 328.448 139.504C328.448 138.088 327.872 136.384 325.88 134.344C326.672 132.424 327.56 129.928 328.136 128.08H324.824V146.8H322.856V126.064H328.952L329.288 125.968Z" fill="white"/>
<rect width="240" height="48" transform="translate(456 24)" fill="#1F7D73"/>
<path d="M548.568 51.888L548.952 54C546.336 54.912 543.552 55.848 541.392 56.544L540.864 54.264C541.728 54.024 542.784 53.736 543.936 53.376V47.28H541.344V45.216H543.936V40.44H541.104V38.376H548.736V40.44H546.072V45.216H548.352V47.28H546.072V52.704C546.888 52.44 547.752 52.176 548.568 51.888ZM551.808 44.208V46.848H554.952V44.208H551.808ZM551.808 39.84V42.432H554.952V39.84H551.808ZM559.92 42.432V39.84H556.848V42.432H559.92ZM559.92 46.848V44.208H556.848V46.848H559.92ZM557.04 56.088H563.136V58.128H547.8V56.088H554.76V53.232H549.552V51.216H554.76V48.744H549.768V37.944H562.056V48.744H557.04V51.216H562.368V53.232H557.04V56.088ZM582.144 53.664V52.176H577.032V53.664H582.144ZM577.032 49.056V50.424H582.144V49.056H577.032ZM570.264 44.568H574.776V43.128H570.264V44.568ZM581.76 43.128H577.032V44.568H581.76V43.128ZM586.896 50.424V52.176H584.4V56.376H582.144V55.344H577.032V56.592C577.032 57.816 576.72 58.32 575.904 58.632C575.088 58.92 573.84 58.944 571.824 58.944C571.704 58.44 571.368 57.624 571.056 57.144C572.376 57.192 573.816 57.192 574.2 57.168C574.632 57.144 574.776 57.024 574.776 56.616V55.344H567.288V53.664H574.776V52.176H565.176V50.424H574.776V49.056H567.504V47.472H574.776V46.056H568.128V41.64H574.776V40.416H565.68V38.616H574.776V36.864H577.032V38.616H586.392V40.416H577.032V41.64H584.016V46.056H577.032V47.472H584.4V50.424H586.896ZM590.256 50.904V48.72H609.912V50.904H599.64C598.344 52.608 596.832 54.264 595.272 55.68L605.04 55.008C604.248 54.096 603.384 53.208 602.568 52.464L604.464 51.48C606.576 53.328 608.784 55.872 609.864 57.648L607.848 58.872C607.536 58.32 607.128 57.648 606.6 56.976C594.36 57.936 592.92 58.008 591.888 58.416C591.744 57.912 591.408 56.76 591.12 56.136C591.672 56.016 592.224 55.584 592.944 54.912C593.568 54.384 595.128 52.776 596.592 50.904H590.256ZM595.296 44.136H605.064C603.144 42.912 601.368 41.496 600.048 40.2C598.68 41.664 597.072 42.96 595.296 44.136ZM600.024 36.816L602.088 37.752C601.872 38.088 601.608 38.424 601.344 38.76C603.6 40.872 607.416 43.272 611.112 44.52C610.632 44.952 609.888 45.864 609.552 46.464C608.232 45.936 606.912 45.264 605.664 44.52V46.2H594.432V44.688C593.208 45.432 591.936 46.104 590.592 46.728C590.28 46.152 589.512 45.192 589.008 44.76C593.592 42.912 597.816 39.96 600.024 36.816Z" fill="white"/>
<rect width="240" height="48" transform="translate(456 112)" fill="#1F7D73"/>
<path d="M558.24 128.224L556.824 129.928C555.864 128.92 553.872 127.384 552.384 126.352L553.704 124.84C555.192 125.776 557.256 127.24 558.24 128.224ZM549.264 138.016L547.968 139.768C547.68 139.096 547.104 137.92 546.576 136.864V146.92H544.512V137.896C543.768 139.84 542.856 141.688 541.944 142.936C541.728 142.312 541.2 141.352 540.816 140.752C542.112 139.12 543.48 136.24 544.272 133.72H541.416V131.656H544.512V128.224C543.72 128.392 542.928 128.536 542.184 128.656C542.064 128.152 541.776 127.432 541.56 126.928C543.792 126.472 546.336 125.8 547.92 125.032L549.264 126.832C548.472 127.168 547.536 127.48 546.576 127.72V131.656H549.24V133.72H546.576V134.176C547.176 134.944 548.88 137.32 549.288 137.968C549.792 136.192 550.104 134.032 550.272 132.184L551.952 132.592C551.712 135.04 551.232 138.304 550.416 140.248L548.688 139.648C548.88 139.168 549.096 138.616 549.264 138.016ZM556.008 144.688H558.552C559.32 144.688 559.44 144.088 559.56 141.256C560.04 141.64 560.88 141.976 561.456 142.12C561.216 145.576 560.688 146.632 558.744 146.632H555.744C553.632 146.632 553.032 146.032 552.96 143.92C552.096 144.832 551.136 145.648 550.152 146.416C549.816 146.008 548.88 145.24 548.352 144.904C550.08 143.704 551.616 142.264 552.96 140.584V130.24H555.072V137.584C557.064 134.344 558.552 130.576 559.632 126.376L561.768 126.784C561.096 129.208 560.328 131.464 559.44 133.6L560.928 133.192C561.912 135.4 562.8 138.256 563.136 140.176L561.096 140.752C560.832 138.976 560.04 136.312 559.2 134.176C558.024 136.84 556.68 139.264 555.072 141.4V143.536C555.072 144.52 555.192 144.688 556.008 144.688ZM586.848 128.68L585.456 130.384C584.472 129.448 582.408 127.96 580.848 126.952L582.144 125.464C583.68 126.376 585.792 127.792 586.848 128.68ZM576.024 131.104V135.376H581.04V131.104H576.024ZM583.272 135.376H586.728C586.728 135.376 586.68 136 586.632 136.336C586.272 141.088 585.912 143.056 585.144 143.824C584.592 144.4 583.992 144.568 583.08 144.64C582.312 144.688 580.872 144.688 579.384 144.616C579.336 143.992 579.072 143.08 578.64 142.48C580.128 142.624 581.64 142.648 582.24 142.648C582.72 142.648 582.984 142.624 583.272 142.408C583.752 142 584.04 140.584 584.28 137.488H576.024V146.824H573.744V137.488H565.536V135.376H573.744V131.104H566.976V128.968H573.744V124.936H576.024V128.968H583.272V135.376ZM604.848 132.952V142.48H602.472V124.888H604.848V130.96L605.52 130.552C607.296 132.52 609.504 135.232 610.56 136.96L608.568 138.184C607.8 136.792 606.312 134.776 604.848 132.952ZM597.936 130.672H594.264C594.072 131.296 593.88 131.944 593.664 132.52C594.24 134.896 594.96 136.768 595.824 138.28C596.808 136.192 597.504 133.696 597.936 130.672ZM598.944 128.56L600.456 128.968C599.952 133.72 598.872 137.464 597.288 140.368C599.904 143.32 603.264 143.944 606.768 143.944C607.608 143.944 610.176 143.944 611.208 143.92C610.848 144.496 610.44 145.648 610.32 146.272H606.648C602.64 146.272 598.944 145.528 596.088 142.312C594.6 144.4 592.776 145.888 590.688 146.944C590.304 146.44 589.392 145.576 588.84 145.216C591.192 144.136 593.136 142.552 594.648 140.344C593.808 139 593.112 137.368 592.488 135.4C592.056 136.336 591.552 137.2 591.048 137.896C590.64 137.512 589.824 136.936 589.224 136.624C591.048 134.2 592.488 129.616 593.136 124.936L595.464 125.464C595.272 126.52 595.056 127.6 594.816 128.632H598.536L598.944 128.56Z" fill="white"/>
<path d="M27.736 257.64V259.944H25.624V255.72H31.336C31.048 254.928 30.64 253.992 30.28 253.248L32.416 252.72C32.944 253.656 33.472 254.832 33.784 255.72H38.56V259.944H36.352V257.64H27.736ZM27.688 261.96V260.04H36.472V261.96H27.688ZM20.68 265.896L24.664 265.2C24.64 265.776 24.616 266.616 24.64 267.048C19.096 268.176 18.256 268.392 17.728 268.704C17.632 268.296 17.32 267.36 17.08 266.856C17.608 266.712 18.16 266.136 18.88 265.272C19.312 264.84 20.152 263.736 21.112 262.32C18.472 262.656 17.896 262.776 17.56 262.968C17.464 262.536 17.128 261.528 16.864 260.976C17.32 260.88 17.704 260.328 18.208 259.512C18.736 258.768 20.368 255.72 21.232 252.864L23.224 253.8C22.264 256.2 20.944 258.696 19.6 260.688L22.288 260.448C22.792 259.608 23.296 258.744 23.704 257.904L25.432 258.96C24.064 261.384 22.384 263.856 20.68 265.896ZM27.664 267.648L29.728 268.296C28.72 270.144 27.208 272.232 25.984 273.6C25.6 273.24 24.712 272.616 24.208 272.304C24.4 272.136 24.616 271.92 24.808 271.68C22.24 272.376 19.576 273.096 17.488 273.624L17.08 271.488C19 271.104 21.928 270.432 24.784 269.76L24.976 271.488C25.984 270.336 26.992 268.944 27.664 267.648ZM38.632 266.328H33.28V272.568C33.28 273.6 33.112 274.152 32.392 274.464C31.648 274.8 30.64 274.824 29.128 274.8C29.056 274.224 28.768 273.408 28.504 272.832C29.464 272.856 30.472 272.856 30.736 272.856C31.024 272.832 31.096 272.76 31.096 272.52V266.328H25.384V264.384H38.632V266.328ZM34.456 268.392L36.352 267.624C37.408 269.136 38.704 271.176 39.256 272.472L37.24 273.408C36.736 272.112 35.512 269.976 34.456 268.392ZM57.328 267.144H46.936V271.584H57.328V267.144ZM44.68 274.848V265.152H59.68V274.752H57.328V273.648H46.936V274.848H44.68ZM47.392 260.592H57.256C55.504 259.464 53.848 258.144 52.144 256.464C50.752 258 49.12 259.392 47.392 260.592ZM52.312 252.792L54.28 253.8C54.04 254.16 53.8 254.52 53.512 254.88C56.44 257.76 59.704 259.584 63.256 261C62.656 261.504 62.008 262.32 61.696 263.04C60.424 262.416 59.2 261.792 58 261.072V262.656H46.048V261.456C44.92 262.128 43.768 262.776 42.592 263.28C42.208 262.68 41.584 261.84 40.96 261.288C45.424 259.536 49.864 256.488 52.312 252.792ZM84.784 256.44L82.984 257.616C82.36 256.728 81.04 255.216 80.056 254.136L81.808 253.104C82.792 254.112 84.136 255.576 84.784 256.44ZM81.472 264.696H74.656C75.544 266.352 76.696 267.768 78.136 268.968C79.504 267.792 80.656 266.376 81.472 264.696ZM83.056 262.44L84.568 263.136C83.608 266.16 82 268.512 80.008 270.312C82 271.536 84.4 272.424 87.184 272.928C86.68 273.408 86.08 274.344 85.768 274.944C82.792 274.32 80.296 273.24 78.208 271.752C76.072 273.216 73.624 274.224 71.008 274.92C70.768 274.344 70.24 273.48 69.808 272.976C72.184 272.424 74.464 271.536 76.384 270.264C75.16 269.112 74.128 267.768 73.264 266.256C71.608 268.992 69.4 271.248 66.4 273.024C66.088 272.544 65.296 271.68 64.744 271.248C69.04 268.8 71.656 265.056 73.216 260.256H69.976C68.584 260.256 67.696 260.424 67.48 260.712C67.336 260.232 66.976 259.2 66.736 258.648C67.072 258.576 67.36 258.216 67.672 257.688C67.936 257.208 68.872 255.312 69.28 253.464L71.632 253.872C71.224 255.336 70.576 256.872 69.952 258.12H73.816C74.224 256.44 74.536 254.64 74.776 252.768L77.248 253.152C77.032 254.904 76.744 256.56 76.384 258.12H86.392L86.368 260.256H75.832C75.592 261.024 75.328 261.816 75.04 262.536H82.624L83.056 262.44ZM107.152 255.888H93.592V257.928H107.152V255.888ZM109.384 259.824H93.592V260.952C93.592 265.056 93.232 271.008 90.76 274.92C90.328 274.56 89.344 273.984 88.768 273.768C91.144 270.072 91.36 264.768 91.36 260.952V253.968H109.384V259.824ZM107.944 267.84H103.144C103.576 268.632 104.128 269.352 104.776 269.976C105.88 269.352 107.128 268.512 107.944 267.84ZM99.64 263.832V265.968H103.912V263.832H99.64ZM108.064 267.84L109.672 268.944C108.616 269.736 107.32 270.528 106.192 271.104C107.536 272.016 109.144 272.664 111.04 273.048C110.56 273.48 109.984 274.296 109.696 274.896C105.472 273.84 102.64 271.44 101.008 267.84H98.104V272.232L102.76 271.248C102.664 271.824 102.592 272.664 102.616 273.12C96.952 274.416 96.184 274.632 95.704 274.944V274.968C95.56 274.416 95.128 273.528 94.816 273.12C95.296 272.856 96.04 272.232 96.04 271.128V267.84H93.664V265.968H97.6V263.832H94.264V261.936H97.6V259.848H99.64V261.936H103.912V259.848H106V261.936H109.768V263.832H106V265.968H110.752V267.84H108.064ZM122.512 268.008H116.608V271.728H122.512V268.008ZM114.496 274.776V265.992H124.72V274.608H122.512V273.672H116.608V274.776H114.496ZM125.224 255.6V257.592H113.896V255.6H118.648C118.408 254.856 118.072 253.992 117.76 253.296L119.776 252.72C120.232 253.632 120.712 254.76 120.976 255.6H125.224ZM122.056 257.592L124.264 258.096C123.736 259.416 123.136 260.856 122.608 262.008H125.776V264.024H113.248V262.008H116.632C116.416 260.952 115.84 259.368 115.264 258.168L117.208 257.664C117.832 258.864 118.432 260.448 118.672 261.504L116.92 262.008H120.472C121.072 260.736 121.72 258.912 122.056 257.592ZM133.288 253.968L134.848 254.952C134.008 257.184 132.952 259.92 131.992 262.08C134.032 264.264 134.488 266.136 134.488 267.72C134.488 269.256 134.152 270.408 133.336 270.984C132.928 271.272 132.4 271.44 131.848 271.512C131.272 271.584 130.552 271.584 129.856 271.56C129.832 270.984 129.64 270.048 129.304 269.448C129.928 269.52 130.504 269.52 130.912 269.52C131.272 269.496 131.608 269.424 131.848 269.28C132.304 268.992 132.448 268.32 132.448 267.504C132.448 266.088 131.872 264.384 129.88 262.344C130.672 260.424 131.56 257.928 132.136 256.08H128.824V274.8H126.856V254.064H132.952L133.288 253.968Z" fill="#1F7D73"/>
<path d="M225.984 258.072H229.632C229.896 257.4 230.136 256.608 230.352 255.888H225.216V253.872H238.92V255.888H232.992C232.632 256.656 232.296 257.424 231.936 258.072H237.504V269.184H235.248V260.064H228.144V269.256H225.984V258.072ZM224.952 265.992L225.24 267.864C222.456 268.872 219.528 269.88 217.272 270.624L216.744 268.272C217.632 268.032 218.76 267.72 220.032 267.408V257.688H217.128V255.576H224.832V257.688H222.24V266.76L224.952 265.992ZM232.872 261.192V266.16C232.872 269.352 231.624 272.808 224.928 274.872C224.64 274.392 223.992 273.576 223.512 273.168C229.92 271.464 230.64 268.584 230.64 266.136V261.192H232.872ZM232.44 270.936L233.832 269.568C235.608 270.624 237.96 272.232 239.112 273.288L237.624 274.824C236.52 273.72 234.24 272.064 232.44 270.936ZM245.952 270.96H257.808V267.528H245.952V270.96ZM257.808 261.96H245.952V265.416H257.808V261.96ZM257.808 256.44H245.952V259.848H257.808V256.44ZM243.696 254.256H260.16V274.728H257.808V273.144H245.952V274.728H243.696V254.256ZM270.192 256.32H268.872C268.296 257.4 267.6 258.36 266.928 259.104C266.496 258.84 265.56 258.336 265.008 258.144C266.328 256.824 267.408 254.784 268.032 252.744L270.216 253.152C270.048 253.68 269.856 254.184 269.616 254.712H275.712V256.32H272.376C272.832 256.992 273.216 257.712 273.408 258.24L271.512 258.912C271.296 258.216 270.744 257.184 270.192 256.32ZM282.144 270.6H271.224V272.472H282.144V270.6ZM280.92 264.168H271.224V265.848H280.92V264.168ZM271.224 267.504V268.92H284.352V274.872H282.144V274.176H271.224V274.92H268.968V262.488H283.08V267.504H271.224ZM274.392 258.072L276.36 257.664C276.744 258.216 277.104 258.912 277.32 259.488H286.008V263.544H283.752V261.24H268.392V263.544H266.256V259.488H275.088C274.872 259.008 274.632 258.504 274.392 258.072ZM279.744 254.712H286.56V256.32H282.696C283.2 256.968 283.68 257.64 283.92 258.144L282.072 258.96C281.784 258.264 281.064 257.208 280.368 256.32H279C278.568 257.064 278.112 257.736 277.608 258.288C277.224 258 276.288 257.496 275.784 257.28C276.864 256.2 277.68 254.472 278.136 252.768L280.296 253.152C280.152 253.68 279.96 254.184 279.744 254.712ZM296.568 267.888L296.952 270C294.336 270.912 291.552 271.848 289.392 272.544L288.864 270.264C289.728 270.024 290.784 269.736 291.936 269.376V263.28H289.344V261.216H291.936V256.44H289.104V254.376H296.736V256.44H294.072V261.216H296.352V263.28H294.072V268.704C294.888 268.44 295.752 268.176 296.568 267.888ZM299.808 260.208V262.848H302.952V260.208H299.808ZM299.808 255.84V258.432H302.952V255.84H299.808ZM307.92 258.432V255.84H304.848V258.432H307.92ZM307.92 262.848V260.208H304.848V262.848H307.92ZM305.04 272.088H311.136V274.128H295.8V272.088H302.76V269.232H297.552V267.216H302.76V264.744H297.768V253.944H310.056V264.744H305.04V267.216H310.368V269.232H305.04V272.088ZM322.512 268.008H316.608V271.728H322.512V268.008ZM314.496 274.776V265.992H324.72V274.608H322.512V273.672H316.608V274.776H314.496ZM325.224 255.6V257.592H313.896V255.6H318.648C318.408 254.856 318.072 253.992 317.76 253.296L319.776 252.72C320.232 253.632 320.712 254.76 320.976 255.6H325.224ZM322.056 257.592L324.264 258.096C323.736 259.416 323.136 260.856 322.608 262.008H325.776V264.024H313.248V262.008H316.632C316.416 260.952 315.84 259.368 315.264 258.168L317.208 257.664C317.832 258.864 318.432 260.448 318.672 261.504L316.92 262.008H320.472C321.072 260.736 321.72 258.912 322.056 257.592ZM333.288 253.968L334.848 254.952C334.008 257.184 332.952 259.92 331.992 262.08C334.032 264.264 334.488 266.136 334.488 267.72C334.488 269.256 334.152 270.408 333.336 270.984C332.928 271.272 332.4 271.44 331.848 271.512C331.272 271.584 330.552 271.584 329.856 271.56C329.832 270.984 329.64 270.048 329.304 269.448C329.928 269.52 330.504 269.52 330.912 269.52C331.272 269.496 331.608 269.424 331.848 269.28C332.304 268.992 332.448 268.32 332.448 267.504C332.448 266.088 331.872 264.384 329.88 262.344C330.672 260.424 331.56 257.928 332.136 256.08H328.824V274.8H326.856V254.064H332.952L333.288 253.968Z" fill="#1F7D73"/>
<path d="M432.512 259.92V256.008H423.512V259.92H432.512ZM434.792 253.872V262.056H421.376V253.872H434.792ZM424.472 266.52H420.104V271.512H424.472V266.52ZM417.992 274.896V264.384H426.68V274.728H424.472V273.648H420.104V274.896H417.992ZM431.168 271.512H435.92V266.52H431.168V271.512ZM429.032 264.384H438.152V274.776H435.92V273.648H431.168V274.896H429.032V264.384ZM444.176 261.24V262.416C444.176 263.04 444.176 263.664 444.152 264.36H448.544V274.896H446.624V266.256H444.08C443.912 269.232 443.528 272.448 442.592 274.968C442.136 274.728 441.248 274.392 440.672 274.248C442.016 270.84 442.232 265.824 442.232 262.416V253.416H444.176V259.344H445.952V252.888H447.824V259.344H449.432V261.24H444.176ZM452.432 262.68H454.448C454.76 261.984 454.952 261.264 455.072 260.592H452.432V262.68ZM452.432 256.872V258.912H455.264V258.432V256.872H452.432ZM459.848 258.912V256.872H457.28V258.48V258.912H459.848ZM459.848 262.68V260.592H457.136C457.04 261.264 456.872 261.984 456.656 262.68H459.848ZM462.944 268.296V270.216H458.648V274.896H456.512V270.216H449.336V268.296H451.568C451.16 267.912 450.56 267.432 450.104 267.144C451.568 266.352 452.6 265.416 453.344 264.456H450.392V255.096H453.944C454.184 254.352 454.4 253.512 454.496 252.888L457.064 253.152C456.824 253.8 456.512 254.496 456.2 255.096H461.96V264.456H455.84C455.048 265.824 453.872 267.168 452.048 268.296H456.512V264.816H458.648V268.296H462.944ZM470.192 252.96L472.28 253.608C471.632 255.312 470.792 257.064 469.88 258.696V274.872H467.72V262.056C467.072 262.944 466.4 263.76 465.728 264.48C465.512 263.928 464.864 262.728 464.504 262.2C466.76 259.968 468.896 256.464 470.192 252.96ZM486.872 262.056H477.392C477.152 262.944 476.888 263.76 476.672 264.552H483.944L484.28 264.432L485.816 265.416C484.352 267.144 482.384 269.28 480.536 271.224C481.544 271.944 482.408 272.664 483.032 273.264L481.424 274.944C480.104 273.552 477.368 271.44 475.064 270.024L476.624 268.68C477.344 269.088 478.088 269.568 478.784 270.024C479.864 268.896 481.016 267.696 481.952 266.64H473.648C474.08 265.368 474.584 263.784 475.112 262.056H471.056V259.992H475.688C475.928 259.2 476.144 258.36 476.336 257.568H472.424V255.528H476.888C477.104 254.664 477.32 253.8 477.512 253.032L479.72 253.344C479.552 254.04 479.36 254.784 479.144 255.528H485.72V257.568H478.616C478.4 258.36 478.184 259.2 477.968 259.992H486.872V262.056ZM498.152 265.488H508.952C507.272 264.456 505.568 262.944 504.392 261.36V265.032H502.376V261.6C501.272 263.112 499.76 264.504 498.152 265.488ZM504.272 272.256H507.392V270.504H504.272V272.256ZM499.592 270.504V272.256H502.4V270.504H499.592ZM502.4 268.896V267.168H499.592V268.896H502.4ZM507.392 268.896V267.168H504.272V268.896H507.392ZM510.656 260.76H506.216C507.536 262.272 509.552 263.712 511.352 264.432C510.92 264.816 510.272 265.536 509.96 266.064C509.792 265.992 509.624 265.896 509.456 265.8V274.728H507.392V273.888H499.592V274.872H497.624V265.8C497.288 265.992 497 266.16 496.664 266.304C496.424 265.944 496.04 265.416 495.68 265.032L493.904 265.704V272.424C493.904 273.528 493.688 274.128 493.04 274.464C492.392 274.824 491.456 274.896 489.92 274.896C489.872 274.368 489.608 273.408 489.32 272.832C490.28 272.856 491.168 272.856 491.432 272.832C491.744 272.832 491.864 272.76 491.864 272.424V266.448C490.904 266.808 489.992 267.144 489.152 267.432L488.72 265.248C489.584 265.008 490.688 264.648 491.864 264.24V259.608H489.08V257.544H491.864V252.912H493.904V257.544H496.304V259.584H493.904V263.544L495.92 262.8L496.184 264.264C497.912 263.448 499.568 262.152 500.696 260.76H496.4V258.96H499.208C498.944 258.264 498.464 257.208 498.08 256.416L499.832 255.888C500.312 256.704 500.84 257.784 501.104 258.456L499.64 258.96H502.376V255.624C500.576 255.768 498.752 255.864 497.072 255.912C497.024 255.432 496.808 254.712 496.592 254.28C500.72 254.064 505.664 253.632 508.52 252.984L509.72 254.616C508.232 254.952 506.36 255.216 504.392 255.432V258.96H505.544C506.144 257.904 506.816 256.464 507.176 255.432L509.096 255.984C508.616 256.992 508.04 258.072 507.536 258.96H510.656V260.76ZM522.512 268.008H516.608V271.728H522.512V268.008ZM514.496 274.776V265.992H524.72V274.608H522.512V273.672H516.608V274.776H514.496ZM525.224 255.6V257.592H513.896V255.6H518.648C518.408 254.856 518.072 253.992 517.76 253.296L519.776 252.72C520.232 253.632 520.712 254.76 520.976 255.6H525.224ZM522.056 257.592L524.264 258.096C523.736 259.416 523.136 260.856 522.608 262.008H525.776V264.024H513.248V262.008H516.632C516.416 260.952 515.84 259.368 515.264 258.168L517.208 257.664C517.832 258.864 518.432 260.448 518.672 261.504L516.92 262.008H520.472C521.072 260.736 521.72 258.912 522.056 257.592ZM533.288 253.968L534.848 254.952C534.008 257.184 532.952 259.92 531.992 262.08C534.032 264.264 534.488 266.136 534.488 267.72C534.488 269.256 534.152 270.408 533.336 270.984C532.928 271.272 532.4 271.44 531.848 271.512C531.272 271.584 530.552 271.584 529.856 271.56C529.832 270.984 529.64 270.048 529.304 269.448C529.928 269.52 530.504 269.52 530.912 269.52C531.272 269.496 531.608 269.424 531.848 269.28C532.304 268.992 532.448 268.32 532.448 267.504C532.448 266.088 531.872 264.384 529.88 262.344C530.672 260.424 531.56 257.928 532.136 256.08H528.824V274.8H526.856V254.064H532.952L533.288 253.968Z" fill="#1F7D73"/>
<path d="M619.768 255.72V268.704H618.016V253.92H626.368V268.608H624.544V255.72H619.768ZM623.176 257.064V263.976C623.176 267.648 622.624 272.16 618.16 274.872C617.896 274.44 617.32 273.768 616.864 273.408C620.968 271.152 621.304 267 621.304 263.976V257.064H623.176ZM622.384 269.976L623.824 268.872C624.976 270.168 626.368 271.92 626.992 273.048L625.48 274.32C624.88 273.168 623.512 271.32 622.384 269.976ZM638.824 257.568V259.68H636.256V272.136C636.256 273.408 635.992 274.056 635.2 274.392C634.456 274.776 633.232 274.848 631.48 274.848C631.36 274.248 631 273.216 630.688 272.64C631.912 272.664 633.112 272.664 633.472 272.664C633.856 272.64 633.976 272.52 633.976 272.136V263.256C632.416 266.544 630.304 269.64 628.144 271.632C627.76 271.032 627.04 270.24 626.464 269.784C629.152 267.672 631.744 263.616 633.232 259.68H627.328V257.568H633.976V252.912H636.256V257.568H638.824ZM652.288 266.112H660.976C660.976 266.112 660.904 266.736 660.856 267.024C660.304 271.272 659.776 273.12 658.912 273.888C658.312 274.416 657.712 274.56 656.728 274.608C655.936 274.656 654.472 274.656 653.008 274.56C652.984 273.984 652.672 273.168 652.288 272.616C653.824 272.76 655.432 272.784 656.056 272.784C656.584 272.784 656.872 272.76 657.136 272.544C657.688 272.112 658.12 270.768 658.528 268.032H651.64C650.08 271.752 647.2 273.696 642.688 274.872C642.472 274.368 641.824 273.432 641.416 273C645.304 272.232 647.848 270.744 649.24 268.032H643.024V266.112H649.984C650.176 265.44 650.32 264.696 650.416 263.88L652.744 264.072C652.624 264.792 652.48 265.488 652.288 266.112ZM648.184 257.136L647.92 257.4C648.904 258.552 650.344 259.488 652.12 260.232C654.208 259.392 656.032 258.384 657.4 257.136H648.184ZM659.608 255.144L660.976 256.056C659.56 258.168 657.4 259.848 654.832 261.12C657.232 261.744 660.04 262.104 663.04 262.272C662.56 262.752 662.056 263.664 661.792 264.24C658.144 263.952 654.856 263.352 652.12 262.272C649 263.424 645.496 264.12 642.064 264.528C641.896 263.976 641.536 263.088 641.2 262.584C644.056 262.32 646.936 261.816 649.6 261.072C648.4 260.376 647.368 259.56 646.456 258.6C645.568 259.296 644.56 259.968 643.432 260.544C643.168 260.04 642.544 259.2 642.088 258.864C645.448 257.208 647.752 254.904 648.976 252.864L651.256 253.32C650.872 253.968 650.416 254.616 649.912 255.24H659.224L659.608 255.144ZM670.192 256.32H668.872C668.296 257.4 667.6 258.36 666.928 259.104C666.496 258.84 665.56 258.336 665.008 258.144C666.328 256.824 667.408 254.784 668.032 252.744L670.216 253.152C670.048 253.68 669.856 254.184 669.616 254.712H675.712V256.32H672.376C672.832 256.992 673.216 257.712 673.408 258.24L671.512 258.912C671.296 258.216 670.744 257.184 670.192 256.32ZM682.144 270.6H671.224V272.472H682.144V270.6ZM680.92 264.168H671.224V265.848H680.92V264.168ZM671.224 267.504V268.92H684.352V274.872H682.144V274.176H671.224V274.92H668.968V262.488H683.08V267.504H671.224ZM674.392 258.072L676.36 257.664C676.744 258.216 677.104 258.912 677.32 259.488H686.008V263.544H683.752V261.24H668.392V263.544H666.256V259.488H675.088C674.872 259.008 674.632 258.504 674.392 258.072ZM679.744 254.712H686.56V256.32H682.696C683.2 256.968 683.68 257.64 683.92 258.144L682.072 258.96C681.784 258.264 681.064 257.208 680.368 256.32H679C678.568 257.064 678.112 257.736 677.608 258.288C677.224 258 676.288 257.496 675.784 257.28C676.864 256.2 677.68 254.472 678.136 252.768L680.296 253.152C680.152 253.68 679.96 254.184 679.744 254.712ZM696.568 267.888L696.952 270C694.336 270.912 691.552 271.848 689.392 272.544L688.864 270.264C689.728 270.024 690.784 269.736 691.936 269.376V263.28H689.344V261.216H691.936V256.44H689.104V254.376H696.736V256.44H694.072V261.216H696.352V263.28H694.072V268.704C694.888 268.44 695.752 268.176 696.568 267.888ZM699.808 260.208V262.848H702.952V260.208H699.808ZM699.808 255.84V258.432H702.952V255.84H699.808ZM707.92 258.432V255.84H704.848V258.432H707.92ZM707.92 262.848V260.208H704.848V262.848H707.92ZM705.04 272.088H711.136V274.128H695.8V272.088H702.76V269.232H697.552V267.216H702.76V264.744H697.768V253.944H710.056V264.744H705.04V267.216H710.368V269.232H705.04V272.088ZM722.512 268.008H716.608V271.728H722.512V268.008ZM714.496 274.776V265.992H724.72V274.608H722.512V273.672H716.608V274.776H714.496ZM725.224 255.6V257.592H713.896V255.6H718.648C718.408 254.856 718.072 253.992 717.76 253.296L719.776 252.72C720.232 253.632 720.712 254.76 720.976 255.6H725.224ZM722.056 257.592L724.264 258.096C723.736 259.416 723.136 260.856 722.608 262.008H725.776V264.024H713.248V262.008H716.632C716.416 260.952 715.84 259.368 715.264 258.168L717.208 257.664C717.832 258.864 718.432 260.448 718.672 261.504L716.92 262.008H720.472C721.072 260.736 721.72 258.912 722.056 257.592ZM733.288 253.968L734.848 254.952C734.008 257.184 732.952 259.92 731.992 262.08C734.032 264.264 734.488 266.136 734.488 267.72C734.488 269.256 734.152 270.408 733.336 270.984C732.928 271.272 732.4 271.44 731.848 271.512C731.272 271.584 730.552 271.584 729.856 271.56C729.832 270.984 729.64 270.048 729.304 269.448C729.928 269.52 730.504 269.52 730.912 269.52C731.272 269.496 731.608 269.424 731.848 269.28C732.304 268.992 732.448 268.32 732.448 267.504C732.448 266.088 731.872 264.384 729.88 262.344C730.672 260.424 731.56 257.928 732.136 256.08H728.824V274.8H726.856V254.064H732.952L733.288 253.968Z" fill="#1F7D73"/>
<path d="M826.608 252.936H829.152C829.128 253.848 829.104 255.096 828.984 256.512C829.32 259.512 830.784 269.088 839.16 272.808C838.512 273.312 837.84 274.104 837.528 274.704C831.888 272.04 829.272 266.76 828 262.464C826.8 266.976 824.256 271.824 818.832 274.824C818.448 274.248 817.728 273.528 816.984 273.048C826.8 267.96 826.536 256.776 826.608 252.936ZM851.928 257.952H861.768C861.768 257.952 861.744 258.744 861.72 259.056C861.192 268.776 860.736 272.328 859.68 273.552C859.032 274.32 858.408 274.56 857.472 274.656C856.608 274.752 855.072 274.728 853.656 274.656C853.608 274.008 853.296 273.024 852.864 272.352C854.448 272.496 855.912 272.496 856.512 272.496C857.04 272.496 857.328 272.424 857.616 272.136C858.432 271.368 858.936 268.08 859.344 260.232H851.832C851.472 265.176 849.84 270.984 843.024 275.016C842.664 274.464 841.824 273.624 841.296 273.216C847.536 269.64 849.096 264.552 849.456 260.232H842.016V257.952H849.576V257.352V252.912H851.928V257.352V257.952ZM872.112 256.032L870.936 257.736C869.88 256.92 867.72 255.792 866.016 255.144L867.144 253.608C868.824 254.208 871.008 255.216 872.112 256.032ZM872.16 258.792L872.544 260.712C870.264 261.528 867.816 262.32 865.92 262.992L865.272 260.952C867 260.448 869.616 259.632 872.16 258.792ZM884.016 270.432H881.736V266.088H870.48V270.624H868.272V264.072H884.016V270.432ZM875.064 266.736H877.272C876.456 271.272 874.296 273.792 866.16 274.92C865.992 274.416 865.512 273.552 865.176 273.096C872.712 272.208 874.392 270.264 875.064 266.736ZM876.288 271.368L877.56 269.808C880.368 270.6 884.376 272.016 886.44 273L885.096 274.824C883.128 273.792 879.192 272.304 876.288 271.368ZM883.44 256.68H880.44C880.344 257.016 880.248 257.328 880.128 257.664C881.376 259.704 883.8 261.216 886.776 261.864C886.296 262.248 885.744 263.064 885.456 263.592C882.864 262.848 880.752 261.384 879.312 259.464C878.184 261.288 876.36 262.8 873.12 263.808C872.904 263.328 872.352 262.56 871.944 262.2C876.072 261.048 877.536 258.984 878.232 256.68H875.832C875.16 257.664 874.344 258.6 873.288 259.464C872.976 258.96 872.232 258.336 871.752 258.048C873.648 256.608 874.848 254.664 875.424 252.984L877.536 253.272C877.32 253.848 877.08 254.4 876.816 254.976H884.328L884.664 254.904L886.296 255.312C885.768 256.68 885.072 258.192 884.496 259.152L882.528 258.624C882.816 258.12 883.152 257.4 883.44 256.68ZM895.368 255.528L894 257.304C893.112 256.608 891.336 255.48 890.064 254.664L891.384 253.104C892.608 253.8 894.432 254.856 895.368 255.528ZM894.216 261.792L892.872 263.592C891.984 262.92 890.208 261.816 888.912 261.072L890.208 259.464C891.456 260.136 893.256 261.144 894.216 261.792ZM892.848 265.68L894.624 266.928C893.688 269.424 892.464 272.304 891.36 274.56L889.344 273.36C890.352 271.488 891.792 268.416 892.848 265.68ZM898.248 256.08V260.616C898.248 264.792 897.816 270.864 895.008 274.824C894.624 274.464 893.664 273.888 893.136 273.648C895.824 269.904 896.064 264.504 896.064 260.616V254.064H910.752V256.08H898.248ZM900.048 268.08L902.04 268.632C901.272 270.36 900.12 272.304 899.136 273.504C898.728 273.216 897.864 272.688 897.36 272.424C898.392 271.296 899.424 269.616 900.048 268.08ZM901.392 263.496V265.248H907.872V263.496H901.392ZM901.392 260.184V261.912H907.872V260.184H901.392ZM909.96 266.904H905.568V272.688C905.568 273.696 905.4 274.248 904.68 274.536C903.984 274.872 902.928 274.896 901.368 274.872C901.296 274.32 901.008 273.504 900.792 272.952C901.8 273 902.784 272.976 903.072 272.976C903.36 272.976 903.456 272.88 903.456 272.616V266.904H899.4V258.504H902.832C903.072 257.76 903.336 256.872 903.48 256.224L905.976 256.68C905.664 257.328 905.328 257.928 905.04 258.504H909.96V266.904ZM906.768 268.584L908.688 267.864C909.576 269.304 910.704 271.248 911.232 272.424L909.192 273.312C908.688 272.112 907.632 270.096 906.768 268.584ZM922.512 268.008H916.608V271.728H922.512V268.008ZM914.496 274.776V265.992H924.72V274.608H922.512V273.672H916.608V274.776H914.496ZM925.224 255.6V257.592H913.896V255.6H918.648C918.408 254.856 918.072 253.992 917.76 253.296L919.776 252.72C920.232 253.632 920.712 254.76 920.976 255.6H925.224ZM922.056 257.592L924.264 258.096C923.736 259.416 923.136 260.856 922.608 262.008H925.776V264.024H913.248V262.008H916.632C916.416 260.952 915.84 259.368 915.264 258.168L917.208 257.664C917.832 258.864 918.432 260.448 918.672 261.504L916.92 262.008H920.472C921.072 260.736 921.72 258.912 922.056 257.592ZM933.288 253.968L934.848 254.952C934.008 257.184 932.952 259.92 931.992 262.08C934.032 264.264 934.488 266.136 934.488 267.72C934.488 269.256 934.152 270.408 933.336 270.984C932.928 271.272 932.4 271.44 931.848 271.512C931.272 271.584 930.552 271.584 929.856 271.56C929.832 270.984 929.64 270.048 929.304 269.448C929.928 269.52 930.504 269.52 930.912 269.52C931.272 269.496 931.608 269.424 931.848 269.28C932.304 268.992 932.448 268.32 932.448 267.504C932.448 266.088 931.872 264.384 929.88 262.344C930.672 260.424 931.56 257.928 932.136 256.08H928.824V274.8H926.856V254.064H932.952L933.288 253.968Z" fill="#1F7D73"/>
<path d="M1022.7 261.912L1021.47 263.76C1020.54 262.968 1018.59 261.864 1017.06 261.168L1018.23 259.488C1019.74 260.088 1021.71 261.12 1022.7 261.912ZM1019.77 274.608L1017.85 273.096C1019.14 271.296 1020.99 268.224 1022.38 265.488L1024.02 266.976C1022.77 269.472 1021.18 272.352 1019.77 274.608ZM1018.38 254.76L1019.62 253.128C1021.14 253.752 1023.13 254.808 1024.14 255.576L1022.84 257.424C1021.9 256.584 1019.94 255.456 1018.38 254.76ZM1038.68 273.864L1036.66 274.872C1036.47 274.224 1036.14 273.456 1035.68 272.616C1027.21 273.648 1026.13 273.84 1025.41 274.176C1025.29 273.696 1024.9 272.568 1024.64 271.944C1025.14 271.824 1025.6 271.272 1026.18 270.384C1026.68 269.712 1028.05 267.384 1029.13 264.84H1024.18V262.728H1030.11V258.84H1025.19V256.728H1030.11V252.864H1032.39V256.728H1037.5V258.84H1032.39V262.728H1038.42V264.84H1031.79C1030.69 267.216 1029.32 269.568 1027.98 271.488L1034.65 270.768C1034.07 269.808 1033.4 268.848 1032.78 267.96L1034.58 267.096C1036.23 269.184 1037.98 271.968 1038.68 273.864ZM1045.93 252.936L1048.06 253.776C1046.62 255.864 1044.32 258.144 1042.18 259.56C1041.94 259.056 1041.39 258.168 1041.06 257.712C1042.88 256.56 1044.94 254.592 1045.93 252.936ZM1056.15 260.712V262.416H1059.3V260.712H1056.15ZM1056.15 257.136V258.816H1059.3V257.136H1056.15ZM1061.41 264.24H1056.15V265.872H1061.72V267.72H1056.15V269.424H1062.78V271.344H1056.15V274.872H1053.99V271.344H1047.75V269.424H1053.99V267.72H1048.76V265.872H1053.99V264.24H1049.07V262.416H1053.99V260.712H1048.14V259.224C1047.63 260.112 1046.98 261 1046.34 261.864V274.872H1044.25V264.36C1043.46 265.224 1042.62 266.04 1041.85 266.688C1041.66 266.208 1041.1 265.008 1040.74 264.456C1042.78 262.896 1045.04 260.52 1046.38 258.144L1048.14 258.864V258.816H1053.99V257.136H1049.17V255.312H1053.99V252.888H1056.15V255.312H1061.41V258.816H1063.04V260.712H1061.41V264.24ZM1082.14 269.664V268.176H1077.03V269.664H1082.14ZM1077.03 265.056V266.424H1082.14V265.056H1077.03ZM1070.26 260.568H1074.78V259.128H1070.26V260.568ZM1081.76 259.128H1077.03V260.568H1081.76V259.128ZM1086.9 266.424V268.176H1084.4V272.376H1082.14V271.344H1077.03V272.592C1077.03 273.816 1076.72 274.32 1075.9 274.632C1075.09 274.92 1073.84 274.944 1071.82 274.944C1071.7 274.44 1071.37 273.624 1071.06 273.144C1072.38 273.192 1073.82 273.192 1074.2 273.168C1074.63 273.144 1074.78 273.024 1074.78 272.616V271.344H1067.29V269.664H1074.78V268.176H1065.18V266.424H1074.78V265.056H1067.5V263.472H1074.78V262.056H1068.13V257.64H1074.78V256.416H1065.68V254.616H1074.78V252.864H1077.03V254.616H1086.39V256.416H1077.03V257.64H1084.02V262.056H1077.03V263.472H1084.4V266.424H1086.9ZM1100.29 266.112H1108.98C1108.98 266.112 1108.9 266.736 1108.86 267.024C1108.3 271.272 1107.78 273.12 1106.91 273.888C1106.31 274.416 1105.71 274.56 1104.73 274.608C1103.94 274.656 1102.47 274.656 1101.01 274.56C1100.98 273.984 1100.67 273.168 1100.29 272.616C1101.82 272.76 1103.43 272.784 1104.06 272.784C1104.58 272.784 1104.87 272.76 1105.14 272.544C1105.69 272.112 1106.12 270.768 1106.53 268.032H1099.64C1098.08 271.752 1095.2 273.696 1090.69 274.872C1090.47 274.368 1089.82 273.432 1089.42 273C1093.3 272.232 1095.85 270.744 1097.24 268.032H1091.02V266.112H1097.98C1098.18 265.44 1098.32 264.696 1098.42 263.88L1100.74 264.072C1100.62 264.792 1100.48 265.488 1100.29 266.112ZM1096.18 257.136L1095.92 257.4C1096.9 258.552 1098.34 259.488 1100.12 260.232C1102.21 259.392 1104.03 258.384 1105.4 257.136H1096.18ZM1107.61 255.144L1108.98 256.056C1107.56 258.168 1105.4 259.848 1102.83 261.12C1105.23 261.744 1108.04 262.104 1111.04 262.272C1110.56 262.752 1110.06 263.664 1109.79 264.24C1106.14 263.952 1102.86 263.352 1100.12 262.272C1097 263.424 1093.5 264.12 1090.06 264.528C1089.9 263.976 1089.54 263.088 1089.2 262.584C1092.06 262.32 1094.94 261.816 1097.6 261.072C1096.4 260.376 1095.37 259.56 1094.46 258.6C1093.57 259.296 1092.56 259.968 1091.43 260.544C1091.17 260.04 1090.54 259.2 1090.09 258.864C1093.45 257.208 1095.75 254.904 1096.98 252.864L1099.26 253.32C1098.87 253.968 1098.42 254.616 1097.91 255.24H1107.22L1107.61 255.144ZM1122.51 268.008H1116.61V271.728H1122.51V268.008ZM1114.5 274.776V265.992H1124.72V274.608H1122.51V273.672H1116.61V274.776H1114.5ZM1125.22 255.6V257.592H1113.9V255.6H1118.65C1118.41 254.856 1118.07 253.992 1117.76 253.296L1119.78 252.72C1120.23 253.632 1120.71 254.76 1120.98 255.6H1125.22ZM1122.06 257.592L1124.26 258.096C1123.74 259.416 1123.14 260.856 1122.61 262.008H1125.78V264.024H1113.25V262.008H1116.63C1116.42 260.952 1115.84 259.368 1115.26 258.168L1117.21 257.664C1117.83 258.864 1118.43 260.448 1118.67 261.504L1116.92 262.008H1120.47C1121.07 260.736 1121.72 258.912 1122.06 257.592ZM1133.29 253.968L1134.85 254.952C1134.01 257.184 1132.95 259.92 1131.99 262.08C1134.03 264.264 1134.49 266.136 1134.49 267.72C1134.49 269.256 1134.15 270.408 1133.34 270.984C1132.93 271.272 1132.4 271.44 1131.85 271.512C1131.27 271.584 1130.55 271.584 1129.86 271.56C1129.83 270.984 1129.64 270.048 1129.3 269.448C1129.93 269.52 1130.5 269.52 1130.91 269.52C1131.27 269.496 1131.61 269.424 1131.85 269.28C1132.3 268.992 1132.45 268.32 1132.45 267.504C1132.45 266.088 1131.87 264.384 1129.88 262.344C1130.67 260.424 1131.56 257.928 1132.14 256.08H1128.82V274.8H1126.86V254.064H1132.95L1133.29 253.968Z" fill="#1F7D73"/>
</svg>
